<?xml version="1.0" standalone="no"?>
<!DOCTYPE svg PUBLIC "-//W3C//DTD SVG 20010904//EN"
 "http://www.w3.org/TR/2001/REC-SVG-20010904/DTD/svg10.dtd">
<svg version="1.0" xmlns="http://www.w3.org/2000/svg"
 width="64.000000pt" height="64.000000pt" viewBox="0 0 64.000000 64.000000"
 preserveAspectRatio="xMidYMid meet">

<g transform="translate(0.000000,64.000000) scale(0.100000,-0.100000)"
fill="#000000" stroke="none">
<path d="M225 483 c-8 -72 -20 -107 -35 -98 -5 3 -25 -26 -45 -64 -25 -51 -35
-84 -35 -118 l0 -47 39 38 c25 25 41 34 46 26 5 -8 10 -8 20 0 25 21 37 0 15
-27 -29 -37 -26 -53 10 -53 20 0 30 5 30 15 0 8 4 15 9 15 5 0 7 -9 4 -20 -5
-18 0 -20 37 -20 37 0 42 2 37 20 -3 11 -1 20 4 20 5 0 9 -7 9 -15 0 -10 10
-15 30 -15 36 0 39 16 10 53 -22 27 -10 48 15 27 10 -8 15 -8 20 0 5 8 21 -1
46 -26 l39 -38 0 47 c0 34 -10 67 -35 118 -20 38 -40 67 -45 64 -15 -9 -27 26
-35 98 -7 62 -16 80 -29 58 -4 -5 -19 -5 -36 2 -22 8 -38 8 -60 0 -17 -7 -32
-7 -36 -2 -13 22 -22 4 -29 -58z m102 -5 c-2 -13 -4 -3 -4 22 0 25 2 35 4 23
2 -13 2 -33 0 -45z m11 -50 c14 -14 16 -32 2 -23 -5 3 -11 -28 -13 -77 l-3
-83 0 88 c1 66 -2 86 -11 82 -14 -5 -18 7 -6 18 9 10 17 9 31 -5z m-71 -20
c-3 -8 -6 -5 -6 6 -1 11 2 17 5 13 3 -3 4 -12 1 -19z m110 0 c-3 -8 -6 -5 -6
6 -1 11 2 17 5 13 3 -3 4 -12 1 -19z m-115 -44 c-17 -12 -22 -25 -22 -59 0
-60 18 -67 23 -8 4 45 4 44 4 -10 0 -55 -1 -56 -19 -40 -35 31 -15 133 26 133
6 0 0 -7 -12 -16z m130 -1 c25 -22 25 -94 0 -116 -18 -16 -19 -15 -21 39 -1
40 1 54 9 49 7 -4 10 -24 8 -45 -2 -21 0 -36 4 -34 5 3 8 25 8 49 0 34 -5 47
-22 59 -12 9 -18 16 -14 16 5 0 18 -7 28 -17z m98 -64 c17 -33 29 -68 27 -77
-3 -11 -5 -8 -6 8 -1 20 -3 22 -11 10 -7 -11 -10 -6 -11 20 -1 32 -2 33 -9 10
-7 -21 -8 -18 -10 20 l-3 45 -7 -35 -7 -35 -2 32 c0 17 -4 38 -7 47 -3 9 -1
16 5 16 6 0 25 -27 41 -61z"/>
</g>
</svg>
